<?xml version="1.0" standalone="no"?>
<!DOCTYPE svg PUBLIC "-//W3C//DTD SVG 20010904//EN"
 "http://www.w3.org/TR/2001/REC-SVG-20010904/DTD/svg10.dtd">
<svg version="1.0" xmlns="http://www.w3.org/2000/svg"
 width="1000.000000pt" height="1000.000000pt" viewBox="0 0 1000.000000 1000.000000"
 preserveAspectRatio="xMidYMid meet">
<metadata>
Created by potrace 1.11, written by Peter Selinger 2001-2013
</metadata>
<g transform="translate(0.000000,1000.000000) scale(0.100000,-0.100000)"
fill="#000000" stroke="none">
<path d="M2000 7109 c-177 -22 -277 -45 -422 -95 -127 -44 -306 -137 -411
-212 -327 -233 -576 -614 -686 -1050 -20 -77 -22 -88 -36 -172 -4 -25 -9 -54
-11 -65 -25 -134 -25 -503 1 -650 74 -421 232 -736 519 -1034 271 -280 600
-451 961 -497 22 -3 69 -10 105 -14 65 -9 432 -6 480 3 224 46 329 86 476 182
96 62 228 188 298 284 25 35 46 59 47 55 0 -5 1 -100 1 -211 l1 -203 576 0
576 0 -1 1773 c-1 974 -2 1777 -3 1783 -1 8 -161 11 -573 10 l-573 -1 0 -197
0 -198 -30 38 c-16 20 -66 73 -110 117 -187 185 -407 291 -720 345 -79 14
-381 20 -465 9z m680 -1007 c373 -76 623 -328 697 -702 14 -72 19 -252 8 -315
-38 -224 -117 -378 -270 -531 -164 -163 -365 -246 -600 -247 -252 -1 -477 86
-647 249 -306 294 -359 819 -119 1173 146 214 383 360 630 387 31 3 57 7 58 8
9 8 164 -6 243 -22z"/>
<path d="M7748 7115 c-2 -1 -30 -5 -63 -8 -33 -3 -82 -11 -110 -17 -27 -7 -57
-13 -66 -15 -227 -47 -501 -219 -680 -427 l-59 -69 0 209 0 209 -575 0 -575 0
-1 -26 c-1 -32 -1 -5316 0 -5351 l1 -25 567 2 c313 1 571 2 576 2 4 1 7 503 7
1117 l0 1116 47 -59 c201 -248 474 -394 838 -448 86 -13 471 -14 520 -2 11 3
40 8 65 11 55 7 86 13 110 21 10 3 28 8 39 10 69 13 211 67 308 116 259 132
528 386 696 656 131 213 212 430 262 708 4 23 12 86 21 170 8 81 8 314 0 400
-6 63 -18 149 -32 230 -21 124 -92 346 -152 475 -34 73 -143 256 -178 301 -16
20 -38 48 -49 63 -35 47 -177 190 -245 246 -230 189 -528 320 -831 365 -94 15
-430 30 -441 20z m-20 -1000 c234 -35 448 -159 583 -338 52 -69 79 -117 129
-232 44 -99 67 -309 48 -430 -4 -27 -10 -63 -12 -80 -8 -47 -41 -144 -73 -215
-101 -221 -268 -375 -501 -460 -83 -30 -103 -35 -182 -48 -66 -10 -233 -6
-289 8 -27 6 -55 12 -62 13 -8 2 -18 5 -24 8 -5 4 -23 9 -38 13 -16 4 -59 21
-95 38 -427 200 -625 686 -461 1132 118 320 414 558 734 592 33 4 61 7 62 8 5
5 136 -2 181 -9z"/>
</g>
</svg>
